<svg width="195" height="226" viewBox="0 0 195 256" fill="none" xmlns="http://www.w3.org/2000/svg">
<path d="M78.0939 240.296C78.1049 240.009 78.0806 239.721 78.021 239.431C78.032 239.144 78.0108 238.774 77.9575 238.321C78.0296 238.282 78.209 238.207 78.4958 238.095C78.7826 237.983 79.067 237.932 79.3491 237.943C80.1264 237.932 80.9366 237.983 81.7797 238.097C82.6228 238.212 83.4315 238.304 84.2056 238.375C84.9782 238.486 85.7156 238.596 86.4176 238.705C87.1887 238.858 87.9244 239.009 88.6249 239.159C89.0465 239.216 89.4305 239.333 89.7768 239.511C90.1247 239.647 90.4726 239.784 90.8205 239.92C91.1684 240.057 91.5163 240.193 91.8642 240.329C95.6223 241.786 98.31 243.531 99.9273 245.562C101.543 247.635 102.517 249.868 102.85 252.262C102.909 252.551 102.933 252.839 102.922 253.126C102.982 253.416 103.006 253.704 102.995 253.991L77.2013 252.575C77.2733 250.69 77.3452 248.804 77.4172 246.919C77.5582 245.078 77.6647 243.214 77.7367 241.329C77.7429 241.165 77.7845 241.002 77.8612 240.841C78.0085 240.683 78.0861 240.501 78.0939 240.296ZM43.8824 248.47C41.2732 248.371 38.6302 248.229 35.9535 248.045C33.2753 247.901 30.5274 247.735 27.7097 247.545L28.1017 237.279C30.5762 237.209 33.0507 237.139 35.5252 237.07C38.0686 237.044 40.5063 237.014 42.8382 236.98C45.0964 237.025 47.0365 237.078 48.6585 237.14C50.2805 237.202 51.0907 237.254 51.0891 237.295L77.1112 238.288L76.6863 249.415C76.0485 249.473 75.377 249.489 74.6718 249.462C74.0371 249.437 73.4377 249.414 72.8735 249.393C68.0765 249.251 63.2443 249.107 58.3768 248.962C53.5798 248.82 48.7484 248.656 43.8824 248.47ZM26.6568 252.922C23.2718 252.793 19.8524 252.642 16.3984 252.469C13.0134 252.34 9.66368 252.212 6.34921 252.085C6.06869 252.034 5.78817 251.982 5.50766 251.93C5.15662 251.876 4.80479 251.842 4.45219 251.828C3.95854 251.809 3.42964 251.789 2.86548 251.768C2.29975 251.787 1.62823 251.802 0.850935 251.814C0.781979 251.77 0.644856 251.662 0.439554 251.49C0.163732 251.316 0.029731 251.126 0.0375568 250.921C0.0563385 250.429 0.145643 249.94 0.305466 249.454C0.394768 248.964 0.519333 248.477 0.679156 247.99C0.837415 247.545 1.03171 247.08 1.26205 246.597C1.49083 246.154 1.68436 245.71 1.84261 245.264C1.99305 245.024 2.21399 244.786 2.50547 244.551C2.72486 244.354 2.94503 244.137 3.16598 243.899C3.38537 243.702 3.64002 243.507 3.92993 243.312C6.34632 241.065 9.37315 239.477 13.0104 238.549C16.6461 237.662 20.6195 237.178 24.9307 237.096C25.4964 237.077 26.0269 237.056 26.5221 237.034C27.0157 237.052 27.5094 237.071 28.003 237.09L26.6568 252.922Z" fill="#FFB800"/>
<path d="M59.5387 71.0214L60.503 126.263C60.6621 135.379 60.8244 144.677 60.9899 154.157C61.1522 163.455 61.2589 172.663 61.31 181.781C61.4692 190.897 61.6569 200.103 61.8731 209.4C62.0862 218.515 62.1508 227.934 61.8781 237.057L45.6783 236.417C45.6084 235.506 44.6398 235.142 44.5667 234.049C44.5508 233.137 44.5365 232.317 44.5238 231.588L42.9485 141.341C42.9263 140.065 42.958 138.788 43.0436 137.51C43.1833 136.231 43.269 134.953 43.3007 133.676C43.4244 131.485 43.4672 129.296 43.429 127.108C43.2984 116.533 43.1424 106.049 42.961 95.6573C42.7796 85.2653 42.6506 74.7812 42.574 64.205C42.434 56.1831 42.3479 48.1603 42.3158 40.1366C42.3377 32.1118 42.3057 24.0881 42.2196 16.0653L59.9898 16.4203C60.26 25.7165 58.8721 34.3764 58.9804 43.6755C59.1395 52.7912 59.3256 61.9065 59.5387 71.0214Z" fill="#FFB800"/>
<path d="M39.8533 13.9634L76.3405 15.7719L114.415 17.9013C118.784 18.1973 123.157 18.4418 127.532 18.635C131.908 18.8281 136.281 19.0726 140.65 19.3686C140.622 19.8829 140.594 20.3715 140.568 20.8344C140.649 21.3032 140.675 21.7948 140.646 22.3091C140.646 22.3091 140.645 22.3348 140.642 22.3863C140.639 22.4377 140.743 22.4951 140.953 22.5584L153.271 23.2474C153.09 22.6697 153.015 22.098 153.046 21.5323C153.078 20.9665 153.11 20.4008 153.141 19.8351L153.866 6.87456L41.2742 0.0357884C41.0436 0.332442 40.8967 1.0465 40.8334 2.17798C40.6635 3.30348 40.5902 4.61496 40.6134 6.11242C40.5271 7.65533 40.4451 9.1211 40.3674 10.5097C40.1803 11.9438 40.0089 13.095 39.8533 13.9634Z" fill="#FFB800"/>
</svg>
