<svg width="54" height="30" viewBox="0 0 54 50" fill="none" xmlns="http://www.w3.org/2000/svg">
<path d="M32.7502 48.898C31.8829 48.7999 30.9794 48.7005 30.0397 48.5998C29.1724 48.5017 28.3063 48.3693 27.4414 48.2028C26.9365 48.1171 26.5064 47.9655 26.1511 47.7481C25.8682 47.5332 25.8811 47.1574 26.1897 46.6207C26.8023 45.684 27.0175 44.6994 26.8352 43.667C26.7231 42.7055 26.7197 41.7476 26.825 40.7935C27.1104 38.8195 27.252 36.8063 27.2499 34.7539C27.3179 32.7724 27.4221 30.7921 27.5625 28.8131C27.9206 24.7208 28.3161 20.5957 28.749 16.4376C29.1795 12.3478 29.6147 8.12141 30.0546 3.75834C30.992 3.92732 31.8569 4.09381 32.6494 4.25782C33.512 4.49264 34.3044 4.65665 35.0268 4.74984C37.4158 4.90022 39.5711 5.52144 41.4926 6.6135C43.4117 7.77389 45.2174 9.0672 46.9097 10.4934C48.3192 11.7048 49.468 13.1124 50.3562 14.7162C51.242 16.3884 51.8707 18.1544 52.2422 20.0142C52.7399 22.4256 52.8776 24.7562 52.6553 27.0061C52.5031 29.3268 52.0973 31.6387 51.4378 33.942C51.0216 35.5011 50.3563 36.9149 49.4422 38.1833C48.6005 39.4542 47.6174 40.6176 46.4929 41.6736C45.2935 42.7954 43.989 43.8109 42.5793 44.7203C41.1673 45.698 39.5846 46.362 37.8313 46.7123C37.3194 46.8315 36.77 46.9837 36.1832 47.1688C35.6666 47.4247 35.2189 47.7856 34.8401 48.2515C34.6133 48.5173 34.3164 48.7124 33.9494 48.8366C33.6525 49.0316 33.2528 49.0521 32.7502 48.898ZM19.5247 2.98659C19.4546 2.91577 19.3505 2.77539 19.2126 2.56543C19.0747 2.35547 18.903 2.07594 18.6973 1.72684C19.062 1.67094 19.3542 1.61256 19.5739 1.55169C19.8661 1.49331 20.156 1.50326 20.4435 1.58153C21.5282 1.68715 22.6129 1.79278 23.6975 1.8984C24.7822 2.00403 25.9031 2.1109 27.0602 2.21901C27.6376 2.30723 28.1426 2.39296 28.575 2.47621C29.0051 2.62778 29.2447 3.04646 29.2937 3.73223C29.4152 4.42048 29.2901 4.89505 28.9184 5.15593C28.5443 5.48514 28.0651 5.70813 27.4807 5.8249C27.4058 5.89074 27.3322 5.92242 27.2597 5.91993C27.1849 5.98577 27.0365 6.08329 26.8144 6.21249C26.7021 7.37159 26.6248 8.56609 26.5826 9.796C26.5381 11.0942 26.4573 12.3912 26.3403 13.687C26.1013 18.5358 25.8636 23.3505 25.627 28.131C25.4629 32.914 25.2626 37.6957 25.026 42.4762C25.0166 42.7495 24.971 43.0216 24.8892 43.2924C24.8073 43.5633 24.7617 43.8353 24.7523 44.1086C24.6658 44.5161 24.6143 44.959 24.5979 45.4373C24.654 45.9181 24.7065 46.5014 24.7555 47.1872C24.6807 47.253 24.5311 47.3847 24.3067 47.5822C24.0822 47.7797 23.7888 47.8723 23.4265 47.8598C22.0496 47.8126 20.5699 47.5908 18.9873 47.1945C18.265 47.1013 17.545 46.9398 16.8274 46.7099C16.1822 46.4825 15.4996 46.2881 14.7796 46.1266C14.4921 46.0483 14.1356 45.8651 13.7102 45.5768C13.4274 45.3619 13.1083 45.1457 12.753 44.9283C12.4702 44.7134 12.1499 44.5314 11.7923 44.3823C8.31169 42.2106 5.82818 39.5258 4.34174 36.328C2.85295 33.1985 1.99069 29.7827 1.75495 26.0806C1.73875 24.4382 1.79502 22.7983 1.92375 21.1609C2.05014 19.5918 2.35769 18.029 2.84642 16.4724C2.86049 16.0624 2.97974 15.7586 3.20418 15.5611C4.04586 14.2902 4.92378 13.0206 5.83794 11.7522C6.82456 10.4863 7.81 9.25451 8.79428 8.05692C9.09587 7.72522 9.50499 7.43142 10.0216 7.17551C10.5383 6.91961 11.0175 6.69662 11.4594 6.50655C12.7872 5.86802 14.1139 5.26366 15.4394 4.69346C16.7626 4.19159 18.1244 3.62263 19.5247 2.98659Z" fill="#ffffff"/>
</svg>
