<svg width="33" height="18" viewBox="0 0 33 32" fill="none" xmlns="http://www.w3.org/2000/svg">
<path d="M8.50734 17.6796C9.62203 16.589 10.6062 15.6441 11.4598 14.8449C12.3134 14.0458 12.752 13.6587 12.7754 13.6838L26.3723 0.954357L26.0421 5.6447C25.6997 6.01226 25.5687 8.14274 25.44 8.62588C25.3112 9.10902 24.7441 12.2425 24.4596 12.5089C19.5302 17.2649 20.2535 18.5347 15.2131 23.2536C13.831 24.5475 12.4255 25.8163 10.9965 27.06C9.55039 28.3669 8.0839 29.6928 6.59709 31.0377L1.28234 25.3608C2.47205 24.1059 3.69067 22.8004 4.93821 21.4443C6.16857 20.1513 7.35828 18.8964 8.50734 17.6796Z" fill="#ffffff"/>
</svg>
