<svg width="31" height="23" viewBox="0 0 31 41" fill="none" xmlns="http://www.w3.org/2000/svg">
<path d="M22.1894 1.41675L14.8692 14.6967L8.79328 25.2206C8.065 26.4116 7.3672 27.6202 6.69989 28.8464C6.03257 30.0727 5.33477 31.2813 4.60649 32.4723C4.30165 32.2963 4.01205 32.1291 3.73769 31.9707C3.44632 31.8418 3.14821 31.6893 2.84337 31.5133C2.84337 31.5133 2.82813 31.5045 2.79764 31.4869C2.76716 31.4693 2.71965 31.4812 2.65513 31.5226L0.689384 34.9274C1.05875 35.062 1.41109 35.2261 1.74642 35.4197C2.08174 35.6133 2.41707 35.8069 2.75239 36.0005L10.4344 40.4357L21.3696 14.3331C21.2207 14.1685 21.6894 12.9167 21.6894 11.9167C21.3696 11.4167 21.6996 10.9167 21.6894 9.91675C21.6849 9.48267 21.7327 8.86805 21.6894 7.91675C21.621 6.41675 22.1997 2.4252 22.1894 1.41675Z" fill="#ffffff"/>
</svg>
