<svg width="24" height="20" viewBox="0 0 24 36" fill="none" xmlns="http://www.w3.org/2000/svg">
<path d="M11.3484 26.62C10.5984 25.2527 9.95363 24.0504 9.41401 23.013C8.87439 21.9757 8.61981 21.4491 8.65027 21.4332L6.37301 12.4475L7.54776 1.01179C7.80948 1.44053 8.04313 1.85249 8.2487 2.24768C8.47996 2.69226 8.68553 3.08745 8.86541 3.43324C12.1174 9.4617 15.3366 15.5386 18.5229 21.664C19.3966 23.3436 20.2398 25.039 21.0526 26.7502C21.9215 28.495 22.8032 30.2645 23.6978 32.0587L16.7989 35.6474C15.9109 34.1635 14.9821 32.6383 14.0123 31.0715C13.0986 29.5383 12.2106 28.0545 11.3484 26.62Z" fill="#ffffff"/>
</svg>
