<svg width="28" height="22" viewBox="0 0 28 38" fill="none" xmlns="http://www.w3.org/2000/svg">
<path d="M8.00919 1.41675L13.221 11.5056L19.2514 22.0556C19.9735 23.2504 20.6661 24.462 21.3291 25.6905C21.9921 26.919 22.6847 28.1307 23.4068 29.3254C23.7023 29.1565 23.9831 28.996 24.249 28.844C24.5319 28.7215 24.8211 28.5758 25.1166 28.4069C25.1166 28.4069 25.1314 28.3985 25.1609 28.3816C25.1905 28.3647 25.2369 28.3773 25.3003 28.4195L27.2513 31.8328C26.8924 31.9595 26.5505 32.1158 26.2254 32.3016C25.9003 32.4874 25.5752 32.6732 25.2502 32.859L17.8031 37.1157L6.87829 11.0247C7.02182 10.8642 6.87829 9.91674 7.25376 8.91674C7.63318 8.41676 7.25376 7.91674 7.63318 6.97128C7.63318 6.54084 7.50918 6.41676 7.54196 5.47405C8.00918 4.91676 8.00919 2.41675 8.00919 1.41675Z" fill="#ffffff"/>
</svg>
